<svg viewBox="0 0 100 100" xmlns="http://www.w3.org/2000/svg" class="skill-icon">
    <defs>
        <linearGradient id="brainGradient" x1="0%" y1="0%" x2="100%" y2="100%">
            <stop offset="0%" style="stop-color:#ff6b9d"/>
            <stop offset="50%" style="stop-color:#c44569"/>
            <stop offset="100%" style="stop-color:#8b2635"/>
        </linearGradient>
        
        <filter id="neuralGlow">
            <feGaussianBlur stdDeviation="1.5"/>
            <feColorMatrix values="1 0 0 0 0  0 1 0 0 0  0 0 1 0 0  0 0 0 1 0"/>
        </filter>
    </defs>
    
    <!-- Brain outline -->
    <path d="M 30,25 Q 25,15 35,15 Q 45,10 55,15 Q 65,10 75,20 Q 80,30 75,40 Q 80,50 75,60 Q 70,70 60,70 Q 50,75 40,70 Q 30,75 25,65 Q 20,55 25,45 Q 15,35 30,25 Z" 
          fill="url(#brainGradient)" stroke="#5a1e2d" stroke-width="2"/>
    
    <!-- Brain folds -->
    <g stroke="#8b2635" stroke-width="1.5" fill="none" opacity="0.8">
        <path d="M 35,25 Q 40,30 45,25"/>
        <path d="M 50,30 Q 55,35 60,30"/>
        <path d="M 35,40 Q 45,45 55,40"/>
        <path d="M 40,55 Q 50,60 60,55"/>
    </g>
    
    <!-- Neural connections -->
    <g stroke="#39ff14" stroke-width="1" opacity="0.6" filter="url(#neuralGlow)">
        <line x1="35" y1="30" x2="45" y2="35">
            <animate attributeName="opacity" values="0.6;1;0.6" dur="1.5s" repeatCount="indefinite"/>
        </line>
        <line x1="50" y1="35" x2="60" y2="40">
            <animate attributeName="opacity" values="0.6;1;0.6" dur="2s" repeatCount="indefinite"/>
        </line>
        <line x1="40" y1="50" x2="55" y2="45">
            <animate attributeName="opacity" values="0.6;1;0.6" dur="1.8s" repeatCount="indefinite"/>
        </line>
    </g>
    
    <!-- Neural nodes -->
    <g fill="#39ff14" opacity="0.8">
        <circle cx="35" cy="30" r="1.5">
            <animate attributeName="r" values="1.5;2.5;1.5" dur="1.5s" repeatCount="indefinite"/>
        </circle>
        <circle cx="50" cy="35" r="1.5">
            <animate attributeName="r" values="1.5;2.5;1.5" dur="2s" repeatCount="indefinite"/>
        </circle>
        <circle cx="60" cy="40" r="1.5">
            <animate attributeName="r" values="1.5;2.5;1.5" dur="1.8s" repeatCount="indefinite"/>
        </circle>
    </g>
    
    <!-- Enhancement effect -->
    <circle cx="50" cy="45" r="35" fill="none" stroke="#39ff14" stroke-width="1" opacity="0.2">
        <animate attributeName="r" values="35;40;35" dur="3s" repeatCount="indefinite"/>
        <animate attributeName="opacity" values="0.2;0.1;0.2" dur="3s" repeatCount="indefinite"/>
    </circle>
</svg>