<svg viewBox="0 0 100 100" xmlns="http://www.w3.org/2000/svg" class="quest-icon">
    <defs>
        <radialGradient id="explosionGrad" cx="50%" cy="50%" r="50%">
            <stop offset="0%" style="stop-color:#ff6b35"/>
            <stop offset="50%" style="stop-color:#ffd23f"/>
            <stop offset="100%" style="stop-color:#ff6b35"/>
        </radialGradient>
        
        <filter id="questGlow">
            <feGaussianBlur stdDeviation="1" result="coloredBlur"/>
            <feMerge>
                <feMergeNode in="coloredBlur"/>
                <feMergeNode in="SourceGraphic"/>
            </feMerge>
        </filter>
    </defs>
    
    <!-- Target circle -->
    <circle cx="50" cy="50" r="40" fill="none" stroke="#ff6b35" stroke-width="3" opacity="0.6"/>
    <circle cx="50" cy="50" r="25" fill="none" stroke="#ffd23f" stroke-width="2" opacity="0.8"/>
    <circle cx="50" cy="50" r="10" fill="#ff6b35"/>
    
    <!-- Crosshair -->
    <g stroke="#ffffff" stroke-width="2" opacity="0.9">
        <line x1="50" y1="15" x2="50" y2="35"/>
        <line x1="50" y1="65" x2="50" y2="85"/>
        <line x1="15" y1="50" x2="35" y2="50"/>
        <line x1="65" y1="50" x2="85" y2="50"/>
    </g>
    
    <!-- Corner markers -->
    <g stroke="#ff6b35" stroke-width="2" fill="none">
        <path d="M 20,20 L 20,30 M 20,20 L 30,20"/>
        <path d="M 80,20 L 80,30 M 80,20 L 70,20"/>
        <path d="M 20,80 L 20,70 M 20,80 L 30,80"/>
        <path d="M 80,80 L 80,70 M 80,80 L 70,80"/>
    </g>
    
    <!-- Pulsing animation -->
    <circle cx="50" cy="50" r="45" fill="none" stroke="url(#explosionGrad)" stroke-width="1" opacity="0.3" filter="url(#questGlow)">
        <animate attributeName="r" values="45;50;45" dur="2s" repeatCount="indefinite"/>
        <animate attributeName="opacity" values="0.3;0.1;0.3" dur="2s" repeatCount="indefinite"/>
    </circle>
</svg>